<?xml version="1.0" encoding="UTF-8"?>
<!DOCTYPE svg PUBLIC "-//W3C//DTD SVG 1.1//EN" "http://www.w3.org/Graphics/SVG/1.1/DTD/svg11.dtd">
<svg xmlns="http://www.w3.org/2000/svg" version="1.1" width="3840px" height="2160px" style="shape-rendering:geometricPrecision; text-rendering:geometricPrecision; image-rendering:optimizeQuality; fill-rule:evenodd; clip-rule:evenodd" xmlns:xlink="http://www.w3.org/1999/xlink">
<g><path style="opacity:0.259" fill="#000000" d="M 1082.5,259.5 C 1083.83,260.167 1083.83,260.167 1082.5,259.5 Z"/></g>
<g><path style="opacity:0.999" fill="#000000" d="M 1082.5,260.5 C 1057.3,281.19 1033.47,303.523 1011,327.5C 984.3,356.891 962.3,389.558 945,425.5C 912.464,497.934 922.464,563.601 975,622.5C 1003.17,651.016 1035.01,674.516 1070.5,693C 1125.84,721.227 1183.51,743.56 1243.5,760C 1358.81,790.861 1475.81,812.861 1594.5,826C 1626.15,829.683 1657.81,833.183 1689.5,836.5C 1690.99,836.291 1692.16,835.624 1693,834.5C 1718.98,702.113 1745.14,569.779 1771.5,437.5C 1801.09,511.024 1830.43,584.691 1859.5,658.5C 1908.83,659.833 1958.17,659.833 2007.5,658.5C 2034.71,584.684 2062.21,511.017 2090,437.5C 2115.48,570.386 2140.31,703.386 2164.5,836.5C 2304.95,835.028 2444.29,817.861 2582.5,785C 2652.8,768.015 2719.47,742.015 2782.5,707C 2818.12,686.587 2848.96,660.42 2875,628.5C 2916.79,572.222 2929.12,509.889 2912,441.5C 2902.56,404.174 2888.23,368.84 2869,335.5C 2854.74,309.968 2838.74,285.635 2821,262.5C 2820.57,261.4 2821.07,260.733 2822.5,260.5C 3024.41,316.347 3211.08,403.514 3382.5,522C 3477.81,588.964 3561.97,668.13 3635,759.5C 3732.33,884.198 3790.83,1025.53 3810.5,1183.5C 3809.83,1183.83 3809.17,1184.17 3808.5,1184.5C 3661.69,1149.39 3513.69,1133.89 3364.5,1138C 3290.21,1140.33 3217.88,1153.33 3147.5,1177C 2998.4,1232.21 2926.23,1339.71 2931,1499.5C 2882.05,1464.11 2828.55,1437.27 2770.5,1419C 2619.69,1372.35 2473.69,1386.35 2332.5,1461C 2265.95,1497.53 2205.62,1542.53 2151.5,1596C 2076.82,1671.32 2011.65,1753.82 1956,1843.5C 1944.83,1861.83 1933.67,1880.17 1922.5,1898.5C 1856.46,1791.9 1777.46,1695.4 1685.5,1609C 1618.76,1546.94 1544.09,1496.27 1461.5,1457C 1286.22,1379.06 1114.39,1388.89 946,1486.5C 940.994,1387.98 900.16,1308.15 823.5,1247C 777.708,1212.58 727.042,1187.25 671.5,1171C 606.419,1152.4 540.253,1142.23 473,1140.5C 404.909,1137.45 336.076,1139.61 266.5,1147C 186.848,1155.39 107.848,1167.89 29.5,1184.5C 28.8333,1184.17 28.1667,1183.83 27.5,1183.5C 47.1608,1099.68 76.9941,1019.68 117,943.5C 210.961,766.851 339.794,620.685 503.5,505C 648.512,405.179 806.512,332.179 977.5,286C 1012.22,276.29 1047.22,267.79 1082.5,260.5 Z"/></g>
</svg>
